<?xml version="1.0" standalone="no"?>
<!DOCTYPE svg PUBLIC "-//W3C//DTD SVG 20010904//EN"
 "http://www.w3.org/TR/2001/REC-SVG-20010904/DTD/svg10.dtd">
<svg version="1.0" xmlns="http://www.w3.org/2000/svg"
 width="512.000000pt" height="512.000000pt" viewBox="0 0 512.000000 512.000000"
 preserveAspectRatio="xMidYMid meet">

<g transform="translate(0.000000,512.000000) scale(0.100000,-0.100000)"
fill="white" stroke="none">
<path d="M2430 4903 c-485 -34 -905 -190 -1290 -477 -124 -92 -355 -324 -450
-451 -212 -283 -350 -584 -425 -930 -36 -166 -48 -292 -48 -485 0 -96 5 -220
12 -275 43 -348 169 -698 359 -995 113 -179 346 -435 510 -564 584 -459 1324
-618 2036 -440 295 74 583 211 836 400 117 87 337 301 424 412 337 428 509
924 509 1462 0 538 -172 1034 -509 1462 -87 111 -307 325 -424 412 -254 189
-540 326 -835 400 -235 59 -496 84 -705 69z m368 -224 c814 -89 1517 -656
1781 -1436 149 -439 149 -927 0 -1366 -162 -478 -503 -898 -936 -1154 -525
-309 -1168 -379 -1744 -189 -561 184 -1027 598 -1275 1132 -268 577 -260 1253
21 1829 315 646 957 1103 1661 1183 113 13 378 14 492 1z"/>
<path d="M2487 3940 c-222 -39 -383 -262 -348 -481 38 -233 257 -396 482 -360
282 46 442 341 324 598 -79 174 -271 276 -458 243z m187 -240 c20 -14 49 -43
64 -64 24 -35 27 -49 27 -116 0 -67 -3 -81 -27 -116 -15 -21 -44 -50 -65 -64
-31 -21 -48 -25 -113 -25 -65 0 -82 4 -113 25 -21 14 -50 43 -65 64 -24 35
-27 49 -27 117 0 70 3 81 30 120 45 64 104 91 186 87 50 -3 75 -10 103 -28z"/>
<path d="M2365 2866 c-65 -21 -99 -42 -142 -89 -94 -102 -95 -106 -91 -787 l3
-565 26 -55 c37 -80 81 -125 157 -162 64 -32 71 -33 212 -37 255 -6 354 40
429 199 l26 55 0 595 c0 681 3 657 -86 754 -80 87 -120 100 -324 103 -119 2
-182 -1 -210 -11z m339 -210 c69 -29 66 2 66 -634 l0 -574 -29 -29 -29 -29
-152 0 -152 0 -29 29 -29 29 0 574 c0 634 -3 605 64 634 43 18 245 19 290 0z"/>
</g>
</svg>
