<?xml version="1.0" standalone="no"?>
<!DOCTYPE svg PUBLIC "-//W3C//DTD SVG 20010904//EN"
 "http://www.w3.org/TR/2001/REC-SVG-20010904/DTD/svg10.dtd">
<svg version="1.0" xmlns="http://www.w3.org/2000/svg"
 width="512.000000pt" height="512.000000pt" viewBox="0 0 512.000000 512.000000"
 preserveAspectRatio="xMidYMid meet">

<g transform="translate(0.000000,512.000000) scale(0.100000,-0.100000)"
fill="white" stroke="none">
<path d="M504 4946 c-136 -31 -241 -92 -337 -196 -71 -77 -120 -168 -148 -278
-78 -307 103 -636 411 -743 88 -30 259 -38 351 -15 221 55 408 242 464 461 19
76 19 222 0 304 -48 203 -222 388 -425 452 -84 27 -234 34 -316 15z m260 -315
c61 -26 132 -95 164 -156 19 -38 26 -70 30 -130 5 -108 -20 -176 -93 -250 -68
-67 -137 -95 -238 -95 -89 0 -170 35 -234 101 -66 69 -88 127 -87 229 1 92 12
127 63 197 85 117 262 163 395 104z"/>
<path d="M1850 4457 c-103 -54 -107 -196 -8 -257 33 -20 54 -20 1596 -20 1310
0 1568 2 1596 14 51 21 81 71 81 133 0 56 -18 90 -69 127 -27 21 -29 21 -1590
24 l-1563 2 -43 -23z"/>
<path d="M472 3170 c-405 -106 -597 -577 -380 -937 72 -120 213 -231 348 -274
91 -30 245 -36 330 -15 93 23 216 87 282 146 75 67 148 178 179 271 20 62 24
94 24 199 0 105 -4 137 -24 199 -49 150 -166 285 -310 360 -141 72 -299 90
-449 51z m306 -314 c64 -33 122 -91 153 -154 20 -39 24 -62 24 -142 0 -80 -4
-103 -24 -142 -75 -152 -258 -227 -413 -168 -75 28 -150 96 -185 168 -24 49
-28 69 -28 142 0 73 4 93 28 142 34 70 109 140 180 168 75 29 192 24 265 -14z"/>
<path d="M1850 2692 c-107 -53 -107 -211 0 -264 33 -17 130 -18 1593 -18 1542
0 1558 0 1597 20 45 23 80 80 80 130 0 50 -35 107 -80 130 -39 20 -55 20
-1597 20 -1463 0 -1560 -1 -1593 -18z"/>
<path d="M472 1404 c-329 -88 -535 -433 -453 -756 32 -125 76 -203 166 -294
87 -88 141 -122 255 -162 64 -22 92 -26 190 -26 160 -1 259 32 386 127 107 81
199 221 229 349 19 82 19 228 0 303 -29 112 -81 203 -169 291 -88 88 -179 140
-291 169 -74 19 -242 19 -313 -1z m283 -305 c77 -29 155 -107 185 -186 30 -80
25 -196 -12 -268 -32 -62 -103 -129 -166 -158 -72 -32 -189 -30 -262 4 -77 36
-121 77 -161 151 -30 57 -33 71 -34 148 0 68 5 95 24 138 29 64 119 150 182
174 64 24 175 23 244 -3z"/>
<path d="M1842 920 c-99 -61 -95 -203 8 -257 l43 -23 1563 2 c1561 3 1563 3
1590 24 94 70 96 190 5 251 l-34 23 -1571 0 c-1550 0 -1571 0 -1604 -20z"/>
</g>
</svg>
