<?xml version="1.0" standalone="no"?>
<!DOCTYPE svg PUBLIC "-//W3C//DTD SVG 20010904//EN"
 "http://www.w3.org/TR/2001/REC-SVG-20010904/DTD/svg10.dtd">
<svg version="1.0" xmlns="http://www.w3.org/2000/svg"
 width="512.000000pt" height="512.000000pt" viewBox="0 0 512.000000 512.000000"
 preserveAspectRatio="xMidYMid meet">

<g transform="translate(0.000000,512.000000) scale(0.100000,-0.100000)"
fill="white" stroke="none">
<path d="M1080 4951 c-98 -30 -187 -106 -236 -201 l-29 -55 -3 -412 c-3 -378
-4 -412 -20 -417 -9 -3 -84 -14 -167 -26 -173 -24 -218 -42 -312 -122 -138
-116 -232 -267 -278 -443 -33 -127 -44 -368 -24 -543 80 -735 591 -1525 1333
-2061 377 -273 820 -455 1221 -502 144 -17 435 -6 543 21 168 41 307 123 430
255 100 107 118 149 147 346 14 90 25 187 25 215 0 75 -26 138 -79 194 -40 42
-94 73 -407 231 -337 171 -366 183 -426 187 -138 9 -192 -26 -343 -219 -63
-81 -121 -151 -128 -158 -18 -14 -59 0 -199 68 -185 90 -373 227 -551 400
l-98 96 1673 5 1673 5 57 23 c81 33 160 108 200 190 l33 67 3 1270 c2 1250 2
1271 -18 1335 -35 115 -114 198 -226 240 -54 20 -68 20 -1912 19 -1021 0
-1868 -4 -1882 -8z m3740 -161 c12 -8 -167 -191 -865 -890 -484 -484 -894
-887 -912 -895 -36 -17 -100 -19 -140 -5 -40 16 -1806 1782 -1790 1792 18 12
3689 10 3707 -2z m-3147 -1902 c-301 -301 -548 -546 -549 -545 -1 1 -13 30
-27 64 -19 48 -23 65 -14 76 7 8 71 59 142 115 72 55 144 115 162 134 50 52
76 121 76 202 l0 69 -182 364 c-181 362 -221 427 -283 459 l-28 15 0 398 c0
220 3 407 6 416 5 13 152 -128 625 -601 l619 -619 -547 -547z m3286 512 l1
-1225 -625 625 -625 625 617 617 c488 488 619 614 625 600 3 -9 7 -568 7
-1242z m-4036 285 c22 -14 73 -107 209 -379 169 -339 180 -363 173 -400 -5
-26 -21 -51 -48 -77 -21 -22 -43 -39 -48 -39 -11 0 -116 160 -194 294 -125
218 -296 590 -278 606 24 24 147 21 186 -5z m-308 -143 c84 -217 279 -585 420
-794 19 -29 35 -57 35 -63 0 -5 -16 -21 -35 -34 -55 -37 -103 -96 -115 -141
-15 -57 10 -138 93 -301 178 -353 496 -703 839 -927 159 -103 396 -212 461
-212 53 1 110 33 157 91 24 30 47 58 51 63 4 5 57 -23 116 -61 226 -147 530
-306 752 -393 62 -25 116 -51 118 -58 9 -23 -7 -60 -53 -121 -83 -110 -218
-199 -369 -243 -73 -20 -101 -23 -305 -23 -245 0 -303 7 -515 67 -581 161
-1200 619 -1614 1192 -201 279 -358 605 -430 892 -49 196 -56 256 -56 459 1
269 32 389 140 540 69 98 193 196 245 195 10 0 32 -44 65 -128z m2205 -678
c49 -26 65 -29 150 -29 140 0 159 12 418 269 l213 210 639 -639 c352 -352 639
-644 637 -650 -2 -5 -19 -19 -38 -30 -34 -20 -52 -20 -1764 -23 l-1731 -2 -72
107 -71 108 566 567 567 567 216 -213 c153 -152 231 -221 270 -242z m343
-1581 c377 -192 387 -198 387 -274 0 -20 -3 -56 -6 -81 l-6 -45 -87 34 c-201
79 -461 212 -681 350 -74 47 -137 87 -139 88 -7 8 44 68 73 86 64 39 83 32
459 -158z"/>
</g>
</svg>
