<?xml version="1.0" standalone="no"?>
<!DOCTYPE svg PUBLIC "-//W3C//DTD SVG 20010904//EN"
 "http://www.w3.org/TR/2001/REC-SVG-20010904/DTD/svg10.dtd">
<svg version="1.0" xmlns="http://www.w3.org/2000/svg"
 width="512.000000pt" height="512.000000pt" viewBox="0 0 512.000000 512.000000"
 preserveAspectRatio="xMidYMid meet">

<g transform="translate(0.000000,512.000000) scale(0.100000,-0.100000)"
fill="white" stroke="none">
<path d="M2934 5096 c-56 -26 -98 -74 -120 -133 -18 -52 -20 -1854 -2 -1914
15 -52 73 -117 122 -140 38 -17 76 -19 522 -19 l482 0 53 28 c39 20 62 41 84
77 28 45 30 57 33 157 l4 109 56 29 c32 16 80 48 107 71 86 72 144 94 265 97
l105 3 22 -35 c13 -20 42 -48 65 -63 40 -27 47 -28 195 -31 136 -3 157 -2 174
14 18 16 19 36 19 525 l0 509 -25 16 c-20 13 -48 15 -167 12 -168 -4 -208 -19
-261 -95 l-32 -45 -76 5 c-97 8 -150 26 -251 88 -46 28 -109 58 -140 67 l-58
17 0 250 c0 221 -3 255 -19 291 -23 49 -88 107 -140 122 -27 8 -179 12 -502
12 l-464 0 -51 -24z m1025 -112 c17 -14 35 -42 41 -62 5 -20 10 -135 10 -254
l0 -218 -245 0 c-168 0 -252 -4 -270 -12 -15 -7 -35 -28 -45 -49 -17 -33 -24
-37 -71 -42 -72 -9 -170 -57 -224 -112 -140 -139 -134 -344 13 -477 199 -180
539 -125 660 107 23 43 27 62 27 138 0 66 3 87 13 87 30 0 76 -38 108 -88 l34
-52 0 -421 c0 -454 -1 -459 -55 -509 l-27 -25 -468 0 c-460 0 -469 0 -497 21
-15 11 -34 32 -40 45 -10 19 -13 233 -13 942 0 800 2 922 15 947 31 60 26 59
537 60 l466 0 31 -26z m231 -681 c36 -18 93 -49 128 -69 79 -45 147 -64 240
-64 l72 0 0 -300 0 -300 -73 0 c-127 0 -236 -39 -345 -124 -32 -24 -67 -49
-79 -55 l-23 -12 0 242 c0 226 1 241 18 234 9 -4 45 -12 79 -18 56 -10 64 -9
83 8 43 39 10 95 -55 95 -60 0 -116 39 -170 120 -34 51 -65 83 -98 104 -43 26
-59 30 -166 36 -98 6 -125 11 -162 31 -39 22 -89 78 -89 101 0 5 123 8 288 6
l287 -3 65 -32z m820 -433 l0 -430 -106 0 c-103 0 -106 1 -135 29 l-29 29 0
369 c0 457 -10 431 173 432 l97 1 0 -430z m-1511 340 c41 -51 122 -98 184
-106 56 -8 67 -25 67 -105 0 -86 -57 -166 -149 -212 -38 -18 -63 -22 -146 -22
-89 0 -106 3 -151 27 -130 68 -176 190 -117 307 30 62 87 107 166 133 85 28
109 24 146 -22z"/>
<path d="M3371 4818 c-79 -54 -102 -137 -59 -217 27 -51 91 -91 142 -91 41 0
115 38 140 72 30 42 34 127 6 175 -32 57 -65 77 -135 81 -50 3 -66 0 -94 -20z
m128 -104 c12 -15 21 -33 21 -40 0 -21 -37 -54 -62 -54 -53 0 -79 74 -36 104
32 23 54 20 77 -10z"/>
<path d="M3370 3468 c-49 -34 -72 -71 -77 -125 -6 -67 27 -129 87 -160 54 -29
94 -29 150 0 59 30 82 64 88 131 8 104 -59 176 -166 176 -34 0 -59 -7 -82 -22z
m129 -104 c12 -15 21 -33 21 -40 0 -21 -37 -54 -62 -54 -53 0 -79 74 -36 104
32 23 54 20 77 -10z"/>
<path d="M757 2976 c-26 -7 -61 -26 -77 -41 -63 -61 -60 -10 -60 -948 l0 -855
-49 -54 c-27 -29 -67 -63 -89 -75 l-40 -23 -15 24 c-24 35 -95 66 -154 66 -41
0 -68 -9 -130 -41 -43 -23 -93 -52 -110 -66 l-33 -24 0 -453 c0 -426 1 -454
18 -469 16 -15 50 -17 266 -17 l247 0 99 57 c129 73 154 107 157 207 l1 71
154 65 153 65 440 6 c242 3 451 9 465 13 164 50 247 87 334 149 48 35 637 588
701 658 43 48 58 101 44 154 -14 50 -64 100 -114 114 -49 13 -145 14 -179 1
l-25 -9 -3 653 -3 652 -28 42 c-15 23 -46 52 -70 64 l-42 23 -905 2 c-718 2
-915 -1 -953 -11z m603 -376 c0 -309 3 -325 60 -355 48 -25 73 -18 169 45 50
33 96 60 100 60 5 0 45 -25 89 -55 94 -64 126 -74 175 -50 64 30 67 48 67 359
l0 276 280 0 c294 0 328 -5 344 -45 3 -9 6 -317 6 -683 l-1 -667 -237 -157
c-226 -150 -237 -157 -245 -135 -44 117 -94 159 -196 164 -274 14 -325 21
-452 61 -69 23 -163 46 -209 52 -185 25 -388 -35 -532 -157 l-53 -46 -3 754
c-1 415 0 768 3 786 3 18 17 41 32 53 25 19 39 20 314 20 l289 0 0 -280z m550
10 c0 -148 -2 -270 -4 -270 -2 0 -47 29 -99 65 -53 36 -106 65 -120 65 -13 0
-55 -22 -93 -48 -38 -27 -81 -57 -96 -66 l-28 -18 0 271 0 271 220 0 220 0 0
-270z m1012 -1150 c37 -11 58 -34 58 -63 0 -18 -648 -636 -712 -679 -93 -63
-200 -109 -303 -130 -30 -6 -204 -9 -430 -9 -216 1 -402 -3 -431 -8 -29 -6
-123 -40 -210 -75 -86 -36 -159 -65 -160 -63 -1 1 -55 103 -120 227 -105 202
-115 225 -99 235 73 43 131 95 172 153 117 167 212 243 373 298 78 27 260 25
350 -4 233 -74 227 -73 414 -81 l179 -8 29 -32 c49 -55 28 -140 -43 -173 -21
-10 -145 -28 -328 -47 -161 -18 -302 -36 -312 -42 -27 -14 -25 -65 4 -83 19
-12 60 -9 325 20 166 18 312 36 325 40 12 4 191 119 397 257 206 138 391 257
410 264 43 15 65 16 112 3z m-2609 -504 c35 -14 55 -50 287 -500 115 -223 114
-230 -28 -310 l-64 -36 -199 0 -199 0 2 391 3 391 73 39 c83 44 81 44 125 25z"/>
</g>
</svg>
