<?xml version="1.0" standalone="no"?>
<!DOCTYPE svg PUBLIC "-//W3C//DTD SVG 20010904//EN"
 "http://www.w3.org/TR/2001/REC-SVG-20010904/DTD/svg10.dtd">
<svg version="1.0" xmlns="http://www.w3.org/2000/svg"
 width="512.000000pt" height="512.000000pt" viewBox="0 0 512.000000 512.000000"
 preserveAspectRatio="xMidYMid meet">

<g transform="translate(0.000000,512.000000) scale(0.100000,-0.100000)"
fill="white" stroke="none">
<path d="M2566 5105 c-5 -15 -47 -258 -60 -347 -5 -43 12 -68 48 -68 37 0 46
19 46 94 0 83 13 170 37 245 19 63 11 84 -34 89 -21 2 -32 -2 -37 -13z"/>
<path d="M1825 4796 c-8 -13 -13 -29 -10 -37 4 -8 38 -39 76 -69 38 -30 92
-81 120 -112 52 -60 76 -70 103 -42 32 31 20 59 -48 113 -35 28 -89 78 -119
111 -63 67 -95 77 -122 36z"/>
<path d="M3163 4797 c-11 -12 -42 -54 -71 -92 -28 -39 -60 -79 -71 -89 -26
-24 -27 -48 -3 -69 34 -31 57 -21 101 43 23 32 62 83 86 112 50 57 53 68 28
90 -31 26 -50 28 -70 5z"/>
<path d="M2457 4410 c-86 -54 -107 -98 -308 -659 -91 -254 -120 -311 -191
-376 -84 -78 -160 -98 -423 -110 -269 -12 -389 -46 -494 -141 -54 -49 -109
-148 -129 -234 -15 -63 -69 -533 -103 -895 -7 -71 -13 -231 -13 -355 -1 -195
1 -232 18 -279 49 -141 186 -200 297 -127 l39 26 2 -427 c4 -574 4 -568 -30
-622 -35 -56 -81 -81 -150 -81 -85 0 -141 41 -184 135 -26 57 -30 167 -14 377
8 103 7 123 -9 164 -16 42 -16 59 -6 178 15 174 1 285 -33 256 -29 -23 -66
-216 -81 -420 -3 -47 -12 -143 -20 -215 -8 -71 -19 -185 -25 -253 -17 -190
-46 -261 -114 -278 -35 -8 -95 24 -123 66 -50 72 -53 142 -23 500 22 259 25
413 10 478 -9 39 -8 45 19 83 48 66 54 121 47 419 -7 270 -17 410 -37 512 -12
57 -32 98 -43 87 -20 -19 -25 -188 -14 -394 19 -330 17 -502 -5 -543 -21 -38
-71 -72 -108 -72 -31 0 -71 41 -89 90 -19 54 -22 285 -12 785 11 485 15 523
62 620 35 72 122 154 210 197 98 48 180 66 378 82 160 14 204 26 172 46 -34
22 -92 32 -207 37 -110 5 -130 3 -214 -21 -133 -38 -219 -87 -311 -177 -89
-87 -129 -159 -155 -285 -14 -68 -17 -159 -17 -674 -1 -555 0 -599 18 -648 23
-69 65 -116 121 -138 41 -15 60 -15 116 2 15 4 15 -1 3 -53 -18 -78 -48 -642
-40 -771 9 -150 39 -211 135 -273 68 -44 124 -41 189 10 54 43 86 100 103 184
18 84 19 85 38 37 52 -136 154 -207 283 -198 101 7 165 47 218 138 8 12 15 9
43 -18 80 -77 211 -66 286 24 45 56 68 139 76 284 12 212 23 221 24 21 1 -202
15 -282 57 -339 93 -121 270 -70 339 98 17 41 18 70 14 340 -7 529 -2 1119 12
1395 8 149 14 363 14 477 l0 207 48 12 c118 28 290 215 408 444 19 35 37 65
40 65 8 0 147 -303 202 -440 56 -140 104 -321 118 -449 7 -53 19 -121 27 -151
14 -47 17 -181 21 -966 l6 -910 30 -59 c72 -140 216 -165 336 -57 28 25 60 65
73 90 l23 45 22 -37 c51 -82 161 -145 252 -146 72 0 118 19 167 70 l38 40 25
-26 c38 -41 79 -57 144 -58 71 0 150 37 195 92 l28 34 22 -40 c46 -82 161
-107 265 -58 63 29 97 66 129 136 36 80 45 154 52 461 l6 276 37 -10 c112 -30
237 69 276 218 19 74 19 150 0 440 -36 546 -52 710 -101 1015 -43 269 -116
372 -294 414 -90 22 -144 20 -392 -11 l-218 -26 -82 41 c-127 62 -225 88 -443
117 -241 31 -307 46 -411 96 -173 82 -300 237 -349 427 -14 56 -15 80 -3 203
18 210 -9 347 -84 416 -57 53 -158 59 -231 13z m154 -76 c70 -36 86 -143 61
-414 -21 -229 -80 -425 -202 -675 -128 -263 -223 -400 -339 -491 -49 -38 -56
-41 -66 -27 -11 15 -13 15 -22 -3 -36 -69 -50 -269 -65 -895 -9 -415 -9 -634
0 -1003 7 -286 8 -486 3 -509 -12 -50 -35 -84 -74 -107 -43 -27 -79 -25 -114
4 -51 43 -54 68 -64 521 -9 462 -20 623 -49 733 -29 110 -37 114 -64 36 -26
-78 -44 -250 -71 -679 -13 -225 -28 -430 -31 -455 -13 -95 -68 -160 -135 -160
-32 0 -46 7 -77 38 -70 70 -67 27 -64 1007 4 865 0 1014 -29 1103 -40 123 -68
-128 -69 -611 0 -181 -4 -315 -11 -341 -24 -95 -106 -150 -166 -110 -80 52
-88 93 -80 413 7 274 18 405 67 821 34 289 49 370 80 430 69 136 187 184 485
200 204 11 284 22 355 50 114 45 183 111 248 238 22 42 90 216 152 386 156
431 170 459 238 496 45 24 64 24 103 4z m144 -762 c18 -35 64 -91 120 -147
153 -154 281 -204 621 -245 228 -27 328 -51 433 -101 87 -43 165 -109 195
-167 46 -88 64 -278 92 -973 20 -482 18 -507 -46 -571 -64 -65 -135 -49 -202
45 -23 32 -23 33 -28 517 -5 392 -9 492 -20 523 -8 22 -19 40 -25 40 -5 1 -16
-18 -25 -43 -13 -39 -15 -156 -15 -911 0 -619 -3 -870 -11 -880 -20 -26 -24
-80 -14 -195 10 -104 10 -116 -9 -151 -49 -97 -124 -122 -221 -72 -85 42 -131
130 -138 259 -2 47 3 173 12 280 23 295 29 491 17 620 -12 118 -35 220 -50
220 -18 0 -22 -54 -31 -376 -9 -325 -23 -544 -40 -634 -5 -25 -11 -80 -15
-123 -17 -220 -156 -362 -265 -271 -70 60 -65 -38 -65 1244 0 1163 -2 1241
-35 1274 -14 14 -28 -30 -40 -125 -5 -45 -11 -84 -13 -85 -2 -2 -9 20 -16 49
-28 111 -225 604 -283 709 l-21 36 47 140 c25 77 46 147 46 156 0 30 15 16 45
-42z m1969 -536 c102 -50 143 -124 180 -326 50 -273 80 -596 105 -1110 13
-277 -3 -354 -82 -411 -56 -41 -99 -39 -144 6 l-35 35 7 137 c3 76 7 289 8
473 2 296 0 339 -15 373 -9 20 -20 37 -23 37 -14 0 -35 -75 -45 -158 -5 -50
-10 -353 -11 -684 0 -326 -4 -683 -8 -793 -7 -188 -9 -203 -33 -250 -42 -80
-78 -108 -146 -113 -51 -4 -62 -1 -88 21 l-29 25 0 349 c0 345 -7 433 -36 433
-34 0 -59 -165 -59 -386 0 -117 -3 -154 -14 -163 -16 -13 -36 -86 -36 -131 0
-45 -34 -105 -75 -130 -44 -27 -122 -31 -157 -8 -54 36 -55 42 -50 560 l4 478
31 -24 c75 -57 174 -54 243 6 71 62 95 153 88 324 -2 54 -11 263 -20 464 -32
760 -36 792 -128 920 l-32 45 100 1 c56 1 137 8 181 17 120 24 249 17 319 -17z"/>
<path d="M1515 4175 c-90 -16 -160 -52 -212 -108 -70 -76 -78 -98 -78 -222 0
-104 2 -114 32 -176 40 -81 107 -150 181 -186 49 -24 69 -28 142 -28 73 0 93
4 142 28 74 36 143 112 163 180 39 130 -10 377 -92 468 -54 60 -129 72 -278
44z m205 -102 c34 -20 52 -59 80 -170 47 -191 4 -311 -135 -369 -146 -61 -325
60 -350 237 -8 54 5 132 35 211 20 53 24 58 63 69 156 42 261 50 307 22z"/>
<path d="M3360 4151 c-46 -10 -90 -33 -115 -61 -11 -12 -37 -29 -57 -37 -84
-34 -102 -129 -54 -288 80 -264 205 -402 371 -413 84 -6 139 12 191 60 66 61
87 125 87 268 0 138 -14 215 -56 293 -69 131 -229 208 -367 178z m180 -116
c95 -48 143 -134 160 -285 24 -213 -28 -310 -168 -310 -129 0 -222 106 -277
316 -51 197 -48 245 22 275 99 42 184 43 263 4z"/>
<path d="M697 4000 c-95 -34 -183 -99 -175 -131 1 -8 -9 -30 -23 -49 -61 -80
-77 -147 -59 -237 26 -122 95 -205 198 -234 87 -24 250 5 333 60 62 41 87 79
109 168 66 257 -32 430 -250 440 -57 3 -89 -1 -133 -17z m199 -95 c53 -16 96
-53 113 -98 16 -41 13 -176 -4 -235 -28 -95 -114 -152 -241 -160 -169 -11
-245 91 -210 280 9 47 16 102 16 124 0 39 1 40 48 53 197 57 204 58 278 36z"/>
<path d="M4244 3971 c-28 -5 -67 -14 -87 -20 -47 -16 -107 -82 -107 -119 0
-16 -9 -37 -20 -47 -25 -23 -44 -109 -38 -177 6 -71 42 -141 103 -204 63 -64
129 -88 235 -89 106 0 161 19 225 76 75 69 98 126 103 260 4 92 1 112 -18 157
-27 62 -102 136 -156 152 -51 15 -175 21 -240 11z m219 -95 c94 -40 132 -167
91 -307 -27 -92 -126 -169 -216 -169 -50 0 -130 32 -169 67 -50 45 -74 91 -88
168 -22 125 -21 136 17 169 19 17 45 37 58 44 70 37 247 54 307 28z"/>
</g>
</svg>
